<svg width="100" height="20" viewBox="0 0 100 20" fill="none" xmlns="http://www.w3.org/2000/svg">
<path d="M10 0L12.2451 6.90983H19.5106L13.6327 11.1803L15.8779 18.0902L10 13.8197L4.12215 18.0902L6.36729 11.1803L0.489435 6.90983H7.75486L10 0Z" fill="#5C3700"/>
<path d="M30 0L32.2451 6.90983H39.5106L33.6327 11.1803L35.8779 18.0902L30 13.8197L24.1221 18.0902L26.3673 11.1803L20.4894 6.90983H27.7549L30 0Z" fill="#5C3700"/>
<path d="M50 0L52.2451 6.90983H59.5106L53.6327 11.1803L55.8779 18.0902L50 13.8197L44.1221 18.0902L46.3673 11.1803L40.4894 6.90983H47.7549L50 0Z" fill="#5C3700"/>
<path d="M70 0L72.2451 6.90983H79.5106L73.6327 11.1803L75.8779 18.0902L70 13.8197L64.1221 18.0902L66.3673 11.1803L60.4894 6.90983H67.7549L70 0Z" fill="#5C3700"/>
<path d="M90 1.61804L91.7696 7.06434L91.8819 7.40983H92.2451H97.9717L93.3388 10.7758L93.0449 10.9894L93.1572 11.3348L94.9268 16.7812L90.2939 13.4152L90 13.2016L89.7061 13.4152L85.0732 16.7812L86.8428 11.3348L86.9551 10.9894L86.6612 10.7758L82.0283 7.40983H87.7549H88.1181L88.2304 7.06434L90 1.61804Z" stroke="#5C3700"/>
</svg>
